
<svg xmlns="http://www.w3.org/2000/svg" width="24" height="24" viewBox="0 0 24 24" fill="none" stroke="currentColor" stroke-width="2" stroke-linecap="round" stroke-linejoin="round" class="lucide lucide-apple"><path d="M12 20.94c1.5 0 2.75-.48 3.77-1.44A6.6 6.6 0 0 0 18 14.62c0-1.05-.2-2.04-.59-2.96a6.16 6.16 0 0 0-1.9-2.38c-.29-.27-.62-.48-1-.64a3.05 3.05 0 0 0-1.21-.24c-.67 0-1.31.22-1.91.64-.61.43-1.04.94-1.29 1.54-.25-.6-.68-1.11-1.3-1.54C9.31 8.22 8.67 8 8 8c-.51 0-.99.08-1.44.25-.45.17-.83.39-1.13.69-1.45 1.33-2.17 3.26-2.17 5.79 0 1.95.55 3.56 1.66 4.82C5.97 20.77 7.16 21 8 21c.82 0 1.68-.25 2.59-.76.91-.5 1.46-.94 1.66-1.31.2.37.75.81 1.66 1.31.9.51 1.76.76 2.59.76z"></path><path d="M10 2c1.2 1.68 1.2 5.3 1.2 5.3a2.3 2.3 0 0 0-1.2 0l-.2.02a5.7 5.7 0 0 0-.8-.82A4.12 4.12 0 0 0 6.76 5.4c-.45 0-.9.14-1.33.42A2.83 2.83 0 0 0 4.2 7.34l-.05.32"></path></svg>
